<?xml version="1.0" encoding="utf-8" standalone="yes"?><svg xmlns="http://www.w3.org/2000/svg" xmlns:xlink="http://www.w3.org/1999/xlink" version="1.1" width="100%" height="100%" viewBox="0 0 816 1056"><!--Generated by Aspose.Words for .NET 18.5--><defs><clipPath id="clip1"><path d="M-1,-1 L246.899993896,-1 L246.899993896,61.5 L-1,61.5 Z" clip-rule="evenodd"></path></clipPath><clipPath id="clip2"><path d="M-0.5,-1 L246.899993896,-1 L246.899993896,61.5 L-0.5,61.5 Z" clip-rule="evenodd"></path></clipPath><style type="text/css">svg{background:white}@font-face{font-family:'Palatino Linotype';font-weight:normal;font-style:normal;src:local('Palatino Linotype'),url('https://lccontentprod.blob.core.windows.net/fonts/pala.woff2') format('woff2'),url('https://lccontentprod.blob.core.windows.net/fonts/pala.ttf') format('truetype')}@font-face{font-family:'Palatino Linotype';font-weight:bold;font-style:normal;src:local('Palatino Linotype Bold'),url('https://lccontentprod.blob.core.windows.net/fonts/palab.woff2') format('woff2'),url('https://lccontentprod.blob.core.windows.net/fonts/palab.ttf') format('truetype')}@font-face{font-family:'Palatino Linotype';font-weight:bold;font-style:italic;src:local('Palatino Linotype Bold Italic'),url('https://lccontentprod.blob.core.windows.net/fonts/palabi.woff2') format('woff2'),url('https://lccontentprod.blob.core.windows.net/fonts/palabi.ttf') format('truetype')}@font-face{font-family:'Palatino Linotype';font-weight:normal;font-style:italic;src:local('Palatino Linotype Italic'),url('https://lccontentprod.blob.core.windows.net/fonts/palai.woff2') format('woff2'),url('https://lccontentprod.blob.core.windows.net/fonts/palai.ttf') format('truetype')}</style></defs><g transform="scale(1.33333)"><g><path d="M0,0 L600,0 L600,450 L0,450 Z" fill="#ffffff" fill-rule="evenodd"></path><g transform="matrix(1,0,0,1,600,0)"><path d="M0,0 L600,0 L600,450 L0,450 Z" fill="#ffffff" fill-rule="evenodd"></path></g><g transform="matrix(1,0,0,1,0,450)"><path d="M0,0 L600,0 L600,450 L0,450 Z" fill="#ffffff" fill-rule="evenodd"></path></g><g transform="matrix(1,0,0,1,600,450)"><path d="M0,0 L600,0 L600,450 L0,450 Z" fill="#ffffff" fill-rule="evenodd"></path></g><g transform="matrix(1,0,0,1,60,43)"><path d="M-1.450000048,0 L493.449981689,0 L493.449981689,8.095000267 L-1.450000048,8.095000267 Z" fill="#e9a507" fill-rule="evenodd"></path><g transform="matrix(1,0,0,1,0,26.094999313)"><text><tspan x="0" y="20.99600029" font-family="Palatino Linotype" font-weight="bold" font-style="normal" font-size="20" fill="#e9a507">ANIKA ELLISON</tspan></text></g><g transform="matrix(1,0,0,1,0,53.076999664)"><text><tspan x="0" y="1.049999952" font-family="Palatino Linotype" font-weight="normal" font-style="normal" font-size="1" fill="#404041"> </tspan></text></g><g transform="matrix(1,0,0,1,0,54.425998688)"><text><tspan x="0" y="12.604999542" font-family="Palatino Linotype" font-weight="normal" font-style="normal" font-size="8" fill="#808284">MURRAY, UT 84107  </tspan></text></g><g transform="matrix(1,0,0,1,0,75.426002502)"><text><tspan x="0" y="12.604999542" font-family="Palatino Linotype" font-weight="normal" font-style="normal" font-size="8" fill="#808284">(555) 555-5555 | </tspan><tspan x="57.99200058" y="12.604999542" font-family="Palatino Linotype" font-weight="normal" font-style="normal" font-size="8" fill="#00adef">example@example.com</tspan></text></g><g transform="matrix(1,0,0,1,0,90.426002502)"><text><tspan x="0" y="28.408000946" font-family="Palatino Linotype" font-weight="bold" font-style="italic" font-size="12" fill="#e9a507">PROFESSIONAL SUMMARY</tspan></text></g><g transform="matrix(1,0,0,1,0,129.425994873)"><text><tspan x="0" y="12.006999969" font-family="Palatino Linotype" font-weight="bold" font-style="normal" font-size="10" fill="#404041">Driven and conscientious dietician skilled in helping others execute diet plans. Top-notch record of patient </tspan><tspan x="0" y="27.006999969" font-family="Palatino Linotype" font-weight="bold" font-style="normal" font-size="10" fill="#404041">satisfaction thanks to ability to articulate complex biology and related restrictions. Seeking a more patient-</tspan><tspan x="0" y="42.006999969" font-family="Palatino Linotype" font-weight="bold" font-style="normal" font-size="10" fill="#404041">facing role to take better advantage of communication skills.</tspan></text></g><g transform="matrix(1,0,0,1,0,174.425994873)"><text><tspan x="0" y="28.408000946" font-family="Palatino Linotype" font-weight="bold" font-style="italic" font-size="12" fill="#e9a507">WORK HISTORY</tspan></text></g><g transform="matrix(1,0,0,1,0,213.425994873)"><text><tspan x="0" y="12.305999756" font-family="Palatino Linotype" font-weight="bold" font-style="normal" font-size="9" fill="#e9a507">SALT LAKE MEDICAL CENTER</tspan><tspan x="137.259002686" y="12.305999756" font-family="Palatino Linotype" font-weight="normal" font-style="normal" font-size="9" fill="#404041"> </tspan></text></g><g transform="matrix(1,0,0,1,0,228.425994873)"><text><tspan x="0" y="12.305999756" font-family="Palatino Linotype" font-weight="normal" font-style="italic" font-size="9" fill="#c3c3c3">Dietician | Salt Lake City, UT | October 2013 - Current</tspan></text></g><g transform="matrix(1,0,0,1,13.850000381,243.425994873)"><text><tspan x="-0.5" y="11.555999756" font-family="Times New Roman" font-weight="normal" font-style="normal" font-size="6.75" fill="#404041">●</tspan><tspan x="9.149999619" y="12.305999756" font-family="Palatino Linotype" font-weight="normal" font-style="normal" font-size="9" fill="#404041">Counsel diabetic and pre-diabetic patients on dietary restrictions and long-term diet plans.</tspan></text></g><g transform="matrix(1,0,0,1,13.850000381,258.425994873)"><text><tspan x="-0.5" y="11.555999756" font-family="Times New Roman" font-weight="normal" font-style="normal" font-size="6.75" fill="#404041">●</tspan><tspan x="9.149999619" y="12.305999756" font-family="Palatino Linotype" font-weight="normal" font-style="normal" font-size="9" fill="#404041">Consult with culinary professionals on the serving and preparation of patient meals.</tspan></text></g><g transform="matrix(1,0,0,1,13.850000381,273.425994873)"><text><tspan x="-0.5" y="11.555999756" font-family="Times New Roman" font-weight="normal" font-style="normal" font-size="6.75" fill="#404041">●</tspan><tspan x="9.149999619" y="12.305999756" font-family="Palatino Linotype" font-weight="normal" font-style="normal" font-size="9" fill="#404041">Increased the program's patient retention rate by 20%.</tspan></text></g><g transform="matrix(1,0,0,1,0,288.425994873)"><text><tspan x="0" y="26.305999756" font-family="Palatino Linotype" font-weight="bold" font-style="normal" font-size="9" fill="#e9a507">ST. MARY'S HOSPITAL</tspan><tspan x="102.163002014" y="26.305999756" font-family="Palatino Linotype" font-weight="normal" font-style="normal" font-size="9" fill="#404041"> </tspan></text></g><g transform="matrix(1,0,0,1,0,317.425994873)"><text><tspan x="0" y="12.305999756" font-family="Palatino Linotype" font-weight="normal" font-style="italic" font-size="9" fill="#c3c3c3">Dietician | Provo, UT | June 2010 - October 2013</tspan></text></g><g transform="matrix(1,0,0,1,13.850000381,332.425994873)"><text><tspan x="-0.5" y="11.555999756" font-family="Times New Roman" font-weight="normal" font-style="normal" font-size="6.75" fill="#404041">●</tspan><tspan x="9.149999619" y="12.305999756" font-family="Palatino Linotype" font-weight="normal" font-style="normal" font-size="9" fill="#404041">Worked alongside doctors, nurses and other medical professionals to provide patients with holistic treatment plans.</tspan></text></g><g transform="matrix(1,0,0,1,13.850000381,347.425994873)"><text><tspan x="-0.5" y="11.555999756" font-family="Times New Roman" font-weight="normal" font-style="normal" font-size="6.75" fill="#404041">●</tspan><tspan x="9.149999619" y="12.305999756" font-family="Palatino Linotype" font-weight="normal" font-style="normal" font-size="9" fill="#404041">Provided outpatient counseling for those suffering from eating disorders, diabetes, cancer and more.</tspan></text></g><g transform="matrix(1,0,0,1,13.850000381,362.425994873)"><text><tspan x="-0.5" y="11.555999756" font-family="Times New Roman" font-weight="normal" font-style="normal" font-size="6.75" fill="#404041">●</tspan><tspan x="9.149999619" y="12.305999756" font-family="Palatino Linotype" font-weight="normal" font-style="normal" font-size="9" fill="#404041">Coordinated and gave educational presentations; host at least two nutrition seminars per month.</tspan></text></g><g transform="matrix(1,0,0,1,0,377.425994873)"><text><tspan x="0" y="26.305999756" font-family="Palatino Linotype" font-weight="bold" font-style="normal" font-size="9" fill="#e9a507">ST. MARY'S HOSPITAL</tspan><tspan x="102.163002014" y="26.305999756" font-family="Palatino Linotype" font-weight="normal" font-style="normal" font-size="9" fill="#404041"> </tspan></text></g><g transform="matrix(1,0,0,1,0,406.425994873)"><text><tspan x="0" y="12.305999756" font-family="Palatino Linotype" font-weight="normal" font-style="italic" font-size="9" fill="#c3c3c3">Dietetic Intern | Provo, UT | August 2008 - April 2010</tspan></text></g><g transform="matrix(1,0,0,1,13.850000381,421.425994873)"><text><tspan x="-0.5" y="11.555999756" font-family="Times New Roman" font-weight="normal" font-style="normal" font-size="6.75" fill="#404041">●</tspan><tspan x="9.149999619" y="12.305999756" font-family="Palatino Linotype" font-weight="normal" font-style="normal" font-size="9" fill="#404041">Completed client weigh-ins and counseled clients on healthy eating behaviors and sound meal planning to promote </tspan><tspan x="9.149999619" y="27.305999756" font-family="Palatino Linotype" font-weight="normal" font-style="normal" font-size="9" fill="#404041">commitment to nutritionally sound diets.</tspan></text></g><g transform="matrix(1,0,0,1,13.850000381,451.425994873)"><text><tspan x="-0.5" y="11.555999756" font-family="Times New Roman" font-weight="normal" font-style="normal" font-size="6.75" fill="#404041">●</tspan><tspan x="9.149999619" y="12.305999756" font-family="Palatino Linotype" font-weight="normal" font-style="normal" font-size="9" fill="#404041">Monitored patients' ongoing adherence to diet plans and answered any questions.</tspan></text></g><g transform="matrix(1,0,0,1,13.850000381,466.425994873)"><text><tspan x="-0.5" y="11.555999756" font-family="Times New Roman" font-weight="normal" font-style="normal" font-size="6.75" fill="#404041">●</tspan><tspan x="9.149999619" y="12.305999756" font-family="Palatino Linotype" font-weight="normal" font-style="normal" font-size="9" fill="#404041">Worked closely with two other interns to gather patient diagnostics upon initial visits.</tspan></text></g><g transform="matrix(1,0,0,1,0,481.425994873)"><text><tspan x="0" y="28.408000946" font-family="Palatino Linotype" font-weight="bold" font-style="italic" font-size="12" fill="#e9a507">SKILLS</tspan></text></g><g transform="matrix(1,0,0,1,0,520.426025391)"><g transform="matrix(1,0,0,1,0,0)" clip-path="url(#clip1)"><g transform="matrix(1,0,0,1,14.100000381,0.25)"><text><tspan x="-0.5" y="11.555999756" font-family="Times New Roman" font-weight="normal" font-style="normal" font-size="6.75" fill="#404041">●</tspan><tspan x="9.149999619" y="12.305999756" font-family="Palatino Linotype" font-weight="normal" font-style="normal" font-size="9" fill="#404041">Nutrition needs assessment</tspan></text></g><g transform="matrix(1,0,0,1,14.100000381,15.25)"><text><tspan x="-0.5" y="11.555999756" font-family="Times New Roman" font-weight="normal" font-style="normal" font-size="6.75" fill="#404041">●</tspan><tspan x="9.149999619" y="12.305999756" font-family="Palatino Linotype" font-weight="normal" font-style="normal" font-size="9" fill="#404041">Patient education</tspan></text></g><g transform="matrix(1,0,0,1,14.100000381,30.25)"><text><tspan x="-0.5" y="11.555999756" font-family="Times New Roman" font-weight="normal" font-style="normal" font-size="6.75" fill="#404041">●</tspan><tspan x="9.149999619" y="12.305999756" font-family="Palatino Linotype" font-weight="normal" font-style="normal" font-size="9" fill="#404041">Diabetes management</tspan></text></g><g transform="matrix(1,0,0,1,14.100000381,45.25)"><text><tspan x="-0.5" y="11.555999756" font-family="Times New Roman" font-weight="normal" font-style="normal" font-size="6.75" fill="#404041">●</tspan><tspan x="9.149999619" y="12.305999756" font-family="Palatino Linotype" font-weight="normal" font-style="normal" font-size="9" fill="#404041">Community nutrition services</tspan></text></g></g><g transform="matrix(1,0,0,1,245.899993896,0)" clip-path="url(#clip2)"><g transform="matrix(1,0,0,1,14.350000381,0.25)"><text><tspan x="-0.5" y="11.555999756" font-family="Times New Roman" font-weight="normal" font-style="normal" font-size="6.75" fill="#404041">●</tspan><tspan x="9.149999619" y="12.305999756" font-family="Palatino Linotype" font-weight="normal" font-style="normal" font-size="9" fill="#404041">Operational improvement</tspan></text></g><g transform="matrix(1,0,0,1,14.350000381,15.25)"><text><tspan x="-0.5" y="11.555999756" font-family="Times New Roman" font-weight="normal" font-style="normal" font-size="6.75" fill="#404041">●</tspan><tspan x="9.149999619" y="12.305999756" font-family="Palatino Linotype" font-weight="normal" font-style="normal" font-size="9" fill="#404041">Relationship development</tspan></text></g><g transform="matrix(1,0,0,1,14.350000381,30.25)"><text><tspan x="-0.5" y="11.555999756" font-family="Times New Roman" font-weight="normal" font-style="normal" font-size="6.75" fill="#404041">●</tspan><tspan x="9.149999619" y="12.305999756" font-family="Palatino Linotype" font-weight="normal" font-style="normal" font-size="9" fill="#404041">Project organization</tspan></text></g><g transform="matrix(1,0,0,1,14.350000381,45.25)"><text><tspan x="-0.5" y="11.555999756" font-family="Times New Roman" font-weight="normal" font-style="normal" font-size="6.75" fill="#404041">●</tspan><tspan x="9.149999619" y="12.305999756" font-family="Palatino Linotype" font-weight="normal" font-style="normal" font-size="9" fill="#404041">Diet modification</tspan></text></g></g><path d="M245.899993896,0 L245.899993896,60.5 " stroke-width="1" stroke-miterlimit="10" stroke="#ffffff" fill="none" fill-rule="evenodd"></path></g><g transform="matrix(1,0,0,1,0,580.926025391)"><text><tspan x="0" y="28.408000946" font-family="Palatino Linotype" font-weight="bold" font-style="italic" font-size="12" fill="#e9a507">EDUCATION</tspan></text></g><g transform="matrix(1,0,0,1,0,619.926025391)"><text><tspan x="0" y="12.305999756" font-family="Palatino Linotype" font-weight="bold" font-style="normal" font-size="9" fill="#404041">BACHELOR OF SCIENCE</tspan><tspan x="109.191001892" y="12.305999756" font-family="Palatino Linotype" font-weight="normal" font-style="normal" font-size="9" fill="#404041"> Dietetic Technology </tspan></text></g><g transform="matrix(1,0,0,1,0,634.926025391)"><text><tspan x="0" y="12.305999756" font-family="Palatino Linotype" font-weight="normal" font-style="normal" font-size="9" fill="#404041">Utah County Academy of Science </tspan></text></g><g transform="matrix(1,0,0,1,0,649.926025391)"><text><tspan x="0" y="12.305999756" font-family="Palatino Linotype" font-weight="normal" font-style="italic" font-size="9" fill="#c3c3c3">Orem, UT</tspan></text></g></g></g></g></svg>