<?xml version="1.0" encoding="UTF-8"?><svg version="1.1" width="612px" height="792px" viewBox="0 0 612 792" xmlns="http://www.w3.org/2000/svg" xmlns:xlink="http://www.w3.org/1999/xlink" xmlns:cs="svg" xml:space="preserve"><style type="text/css">.ps02 { fill: #333a3f; } .ps05 { fill: #333a3f; } .ps04 { fill: #e9a506; } .ps03 { fill: #e9a506; } .ps01 { fill: #ffffff; } .ps00 { fill: none; } .ps24 { letter-spacing: 0; word-spacing: 0; font-family: Verdana; font-size: 10px; font-weight: 600; } .ps22 { letter-spacing: 0; word-spacing: 0; font-family: Verdana; font-size: 12px; font-weight: 600; } .ps20 { letter-spacing: 0; word-spacing: 0; font-family: Verdana; font-size: 27px; font-weight: 600; } .ps21 { letter-spacing: 0; word-spacing: 0; font-family: Verdana; font-size: 10px; } .ps23 { letter-spacing: 0; word-spacing: 0; font-family: Verdana; font-size: 10px; font-style:italic; }
</style><clipPath id="clp1"><rect width="612" height="792" /></clipPath><g clip-path="url(#clp1)" transform="matrix(1 0 0 -1 0 792)"><g><g transform="matrix(1.342 0 0 1.342 0 29)"><clipPath id="clp2"><rect width="459" height="546.9" /></clipPath><g clip-path="url(#clp2)"><g><g transform="matrix(0.745 0 0 -0.745 0 546.925)"><g><clipPath id="clp3"><path d="M0 0 L616.11 0 L616.11 732.89 L0 732.89 Z" /></clipPath><g clip-path="url(#clp3)"><g class="ps00"><path d="M0 0 L616.11 0 L616.11 732.89 L0 732.89 Z" class="ps01" /></g></g></g><g><clipPath id="clp4"><path d="M0 0 L612 0 L612 732 L0 732 Z" /></clipPath><g clip-path="url(#clp4)"><g class="ps00"><path d="M0 0 L612 0 L612 732 L0 732 Z" class="ps01" /></g></g></g><g><clipPath id="clp5"><path d="M0 0 L616.11 0 L616.11 732.89 L0 732.89 Z" /></clipPath><g clip-path="url(#clp5)"><g class="ps00"><clipPath id="clp6"><path d="M64 -2.999 L187 -2.999 L187 37.002 L64 37.002 Z" /></clipPath><g clip-path="url(#clp6)"><g class="ps00"><text transform="matrix(1 0 0 1 69 27.5)"><tspan class="ps02 ps20" xml:space="preserve">ROCCO</tspan></text></g></g></g><g class="ps00"><clipPath id="clp7"><path d="M64 26.998 L174 26.998 L174 68.996 L64 68.996 Z" /></clipPath><g clip-path="url(#clp7)"><g class="ps00"><text transform="matrix(1 0 0 1 69 59.5)"><tspan class="ps02 ps20" xml:space="preserve">PRICE</tspan></text></g></g></g><g class="ps00"><clipPath id="clp8"><path d="M64 61 L195 61 L195 82 L64 82 Z" /></clipPath><g clip-path="url(#clp8)"><g class="ps00"><text transform="matrix(1 0 0 1 69 76)"><tspan class="ps02 ps21" xml:space="preserve">example@example.com</tspan></text></g></g></g><g class="ps00"><clipPath id="clp9"><path d="M183 61 L206 61 L206 82 L183 82 Z" /></clipPath><g clip-path="url(#clp9)"><g class="ps00"><text transform="matrix(1 0 0 1 188.725 76)"><tspan xml:space="preserve" class="ps02 ps21"> | </tspan></text></g></g></g><g class="ps00"><clipPath id="clp10"><path d="M196 61 L289 61 L289 82 L196 82 Z" /></clipPath><g clip-path="url(#clp10)"><g class="ps00"><text transform="matrix(1 0 0 1 201.262 76)"><tspan class="ps02 ps21" xml:space="preserve">(555) 555-5555</tspan></text></g></g></g><g class="ps00"><clipPath id="clp11"><path d="M281 61 L340 61 L340 82 L281 82 Z" /></clipPath><g clip-path="url(#clp11)"><g class="ps00"><text transform="matrix(1 0 0 1 286.5 76)"><tspan class="ps02 ps21" xml:space="preserve">Copeland</tspan></text></g></g></g><g class="ps00"><clipPath id="clp12"><path d="M328 61 L345 61 L345 82 L328 82 Z" /></clipPath><g clip-path="url(#clp12)"><g class="ps00"><text transform="matrix(1 0 0 1 333.049 76)"><tspan class="ps02 ps21" xml:space="preserve">, </tspan></text></g></g></g><g class="ps00"><clipPath id="clp13"><path d="M335 61 L361 61 L361 82 L335 82 Z" /></clipPath><g clip-path="url(#clp13)"><g class="ps00"><text transform="matrix(1 0 0 1 340.687 76)"><tspan class="ps02 ps21" xml:space="preserve">KS</tspan></text></g></g></g><g class="ps00"><clipPath id="clp14"><path d="M353 61 L397 61 L397 82 L353 82 Z" /></clipPath><g clip-path="url(#clp14)"><g class="ps00"><text transform="matrix(1 0 0 1 358.450 76)"><tspan class="ps02 ps21" xml:space="preserve">67837</tspan></text></g></g></g><g class="ps00"><clipPath id="clp15"><path d="M48.999 79.001 L50 79.001 L50 176 L48.999 176 Z" /></clipPath><g clip-path="url(#clp15)"><g class="ps00"><path d="M48.999 79.001 L50 79.001 L50 176 L48.999 176 Z" class="ps03" /></g></g></g><g class="ps00"><clipPath id="clp16"><path d="M65.001 101 L274 101 L274 124 L65.001 124 Z" /></clipPath><g clip-path="url(#clp16)"><g class="ps00"><text transform="matrix(1 0 0 1 70 118)"><tspan class="ps04 ps22" xml:space="preserve">PROFESSIONAL SUMMARY</tspan></text></g></g></g><g class="ps00"><clipPath id="clp17"><path d="M65.001 128 L566 128 L566 149 L65.001 149 Z" /></clipPath><g clip-path="url(#clp17)"><g class="ps00"><text transform="matrix(1 0 0 1 70 143)"><tspan class="ps02 ps21" xml:space="preserve">Talented Java Developer driven to exceed customer expectations with cutting-edge applications.</tspan></text></g></g></g><g class="ps00"><clipPath id="clp18"><path d="M65.001 143 L531 143 L531 164 L65.001 164 Z" /></clipPath><g clip-path="url(#clp18)"><g class="ps00"><text transform="matrix(1 0 0 1 70 158)"><tspan class="ps02 ps21" xml:space="preserve">Versed in latest technologies and most useful programming languages. Over ten years of</tspan></text></g></g></g><g class="ps00"><clipPath id="clp19"><path d="M65.001 158 L204 158 L204 179 L65.001 179 Z" /></clipPath><g clip-path="url(#clp19)"><g class="ps00"><text transform="matrix(1 0 0 1 70 173)"><tspan class="ps02 ps21" xml:space="preserve">development experience.</tspan></text></g></g></g><g class="ps00"><clipPath id="clp20"><path d="M48.999 176 L50 176 L50 533 L48.999 533 Z" /></clipPath><g clip-path="url(#clp20)"><g class="ps00"><path d="M48.999 176 L50 176 L50 533 L48.999 533 Z" class="ps03" /></g></g></g><g class="ps00"><clipPath id="clp21"><path d="M65.001 198 L197 198 L197 221 L65.001 221 Z" /></clipPath><g clip-path="url(#clp21)"><g class="ps00"><text transform="matrix(1 0 0 1 70 215)"><tspan class="ps04 ps22" xml:space="preserve">WORK HISTORY</tspan></text></g></g></g><g class="ps00"><clipPath id="clp22"><path d="M462 225 L517 225 L517 246 L462 246 Z" /></clipPath><g clip-path="url(#clp22)"><g class="ps00"><text transform="matrix(1 0 0 1 467.687 240)"><tspan class="ps02 ps23" xml:space="preserve">02/2015</tspan></text></g></g></g><g class="ps00"><clipPath id="clp23"><path d="M505 225 L527 225 L527 246 L505 246 Z" /></clipPath><g clip-path="url(#clp23)"><g class="ps00"><text transform="matrix(1 0 0 1 510.399 240)"><tspan xml:space="preserve" class="ps02 ps23"> - </tspan></text></g></g></g><g class="ps00"><clipPath id="clp24"><path d="M517 225 L567 225 L567 246 L517 246 Z" /></clipPath><g clip-path="url(#clp24)"><g class="ps00"><text transform="matrix(1 0 0 1 522.937 240)"><tspan class="ps02 ps23" xml:space="preserve">Current</tspan></text></g></g></g><g class="ps00"><clipPath id="clp25"><path d="M65.001 225 L201 225 L201 246 L65.001 246 Z" /></clipPath><g clip-path="url(#clp25)"><g class="ps00"><text transform="matrix(1 0 0 1 70 240)"><tspan class="ps02 ps24" xml:space="preserve">Senior Java Developer</tspan></text></g></g></g><g class="ps00"><clipPath id="clp26"><path d="M189 225 L211 225 L211 246 L189 246 Z" /></clipPath><g clip-path="url(#clp26)"><g class="ps00"><text transform="matrix(1 0 0 1 194.462 240)"><tspan xml:space="preserve" class="ps02 ps21"> | </tspan></text></g></g></g><g class="ps00"><clipPath id="clp27"><path d="M202 225 L311 225 L311 246 L202 246 Z" /></clipPath><g clip-path="url(#clp27)"><g class="ps00"><text transform="matrix(1 0 0 1 207 240)"><tspan class="ps02 ps21" xml:space="preserve">Hanson Dodge Inc.</tspan></text></g></g></g><g class="ps00"><clipPath id="clp28"><path d="M299 225 L321 225 L321 246 L299 246 Z" /></clipPath><g clip-path="url(#clp28)"><g class="ps00"><text transform="matrix(1 0 0 1 304.024 240)"><tspan xml:space="preserve" class="ps02 ps21"> - </tspan></text></g></g></g><g class="ps00"><clipPath id="clp29"><path d="M311 225 L371 225 L371 246 L311 246 Z" /></clipPath><g clip-path="url(#clp29)"><g class="ps00"><text transform="matrix(1 0 0 1 316.562 240)"><tspan class="ps02 ps21" xml:space="preserve">Janesville</tspan></text></g></g></g><g class="ps00"><clipPath id="clp30"><path d="M359 225 L377 225 L377 246 L359 246 Z" /></clipPath><g clip-path="url(#clp30)"><g class="ps00"><text transform="matrix(1 0 0 1 364.737 240)"><tspan class="ps02 ps21" xml:space="preserve">, </tspan></text></g></g></g><g class="ps00"><clipPath id="clp31"><path d="M367 225 L393 225 L393 246 L367 246 Z" /></clipPath><g clip-path="url(#clp31)"><g class="ps00"><text transform="matrix(1 0 0 1 372.375 240)"><tspan class="ps02 ps21" xml:space="preserve">KS</tspan></text></g></g></g><g class="ps00"><clipPath id="clp32"><path d="M98.002 245 L516 245 L516 266 L98.002 266 Z" /></clipPath><g clip-path="url(#clp32)"><g class="ps00"><text transform="matrix(1 0 0 1 103 260)"><tspan class="ps02 ps21" xml:space="preserve">Reworked applications to meet changing market trends and individual customer</tspan></text></g></g></g><g class="ps00"><clipPath id="clp33"><path d="M98.002 260 L159 260 L159 281 L98.002 281 Z" /></clipPath><g clip-path="url(#clp33)"><g class="ps00"><text transform="matrix(1 0 0 1 103 275)"><tspan x="0,6.23" class="ps02 ps21" xml:space="preserve">demands.</tspan></text></g></g></g><g class="ps00"><path d="M85.801 254.23 L85.801 254.23 C87.012 254.23 87.998 255.21 87.998 256.42 C87.998 257.64 87.012 258.63 85.801 258.63 C84.585 258.63 83.599 257.64 83.599 256.42 C83.599 255.21 84.585 254.23 85.801 254.23 Z" class="ps05" /></g><g class="ps00"><clipPath id="clp34"><path d="M98.002 275 L528 275 L528 296 L98.002 296 Z" /></clipPath><g clip-path="url(#clp34)"><g class="ps00"><text transform="matrix(1 0 0 1 103 290)"><tspan class="ps02 ps21" xml:space="preserve">Performed troubleshooting, diagnostics and analysis to uncover root malfunctions.</tspan></text></g></g></g><g class="ps00"><path d="M85.801 284.22 L85.801 284.22 C87.012 284.22 87.998 285.21 87.998 286.43 C87.998 287.64 87.012 288.63 85.801 288.63 C84.585 288.63 83.599 287.64 83.599 286.43 C83.599 285.21 84.585 284.22 85.801 284.22 Z" class="ps05" /></g><g class="ps00"><clipPath id="clp35"><path d="M98.002 290 L487 290 L487 311 L98.002 311 Z" /></clipPath><g clip-path="url(#clp35)"><g class="ps00"><text transform="matrix(1 0 0 1 103 305)"><tspan class="ps02 ps21" xml:space="preserve">Participated in requirements gathering and design development meetings.</tspan></text></g></g></g><g class="ps00"><path d="M85.801 299.22 L85.801 299.22 C87.012 299.22 87.998 300.21 87.998 301.43 C87.998 302.64 87.012 303.62 85.801 303.62 C84.585 303.62 83.599 302.64 83.599 301.43 C83.599 300.21 84.585 299.22 85.801 299.22 Z" class="ps05" /></g><g class="ps00"><clipPath id="clp36"><path d="M458 315 L512 315 L512 336 L458 336 Z" /></clipPath><g clip-path="url(#clp36)"><g class="ps00"><text transform="matrix(1 0 0 1 463.037 330)"><tspan class="ps02 ps23" xml:space="preserve">03/2010</tspan></text></g></g></g><g class="ps00"><clipPath id="clp37"><path d="M500 315 L523 315 L523 336 L500 336 Z" /></clipPath><g clip-path="url(#clp37)"><g class="ps00"><text transform="matrix(1 0 0 1 505.75 330)"><tspan xml:space="preserve" class="ps02 ps23"> - </tspan></text></g></g></g><g class="ps00"><clipPath id="clp38"><path d="M513 315 L567 315 L567 336 L513 336 Z" /></clipPath><g clip-path="url(#clp38)"><g class="ps00"><text transform="matrix(1 0 0 1 518.287 330)"><tspan class="ps02 ps23" xml:space="preserve">06/2014</tspan></text></g></g></g><g class="ps00"><clipPath id="clp39"><path d="M65.001 315 L162 315 L162 336 L65.001 336 Z" /></clipPath><g clip-path="url(#clp39)"><g class="ps00"><text transform="matrix(1 0 0 1 70 330)"><tspan class="ps02 ps24" xml:space="preserve">Java Developer</tspan></text></g></g></g><g class="ps00"><clipPath id="clp40"><path d="M150 315 L172 315 L172 336 L150 336 Z" /></clipPath><g clip-path="url(#clp40)"><g class="ps00"><text transform="matrix(1 0 0 1 155.350 330)"><tspan xml:space="preserve" class="ps02 ps21"> | </tspan></text></g></g></g><g class="ps00"><clipPath id="clp41"><path d="M162 315 L263 315 L263 336 L162 336 Z" /></clipPath><g clip-path="url(#clp41)"><g class="ps00"><text transform="matrix(1 0 0 1 167.887 330)"><tspan class="ps02 ps21" xml:space="preserve">Demandbase Inc.</tspan></text></g></g></g><g class="ps00"><clipPath id="clp42"><path d="M251 315 L274 315 L274 336 L251 336 Z" /></clipPath><g clip-path="url(#clp42)"><g class="ps00"><text transform="matrix(1 0 0 1 256.612 330)"><tspan xml:space="preserve" class="ps02 ps21"> - </tspan></text></g></g></g><g class="ps00"><clipPath id="clp43"><path d="M264 315 L318 315 L318 336 L264 336 Z" /></clipPath><g clip-path="url(#clp43)"><g class="ps00"><text transform="matrix(1 0 0 1 269.149 330)"><tspan class="ps02 ps21" xml:space="preserve">Brighton</tspan></text></g></g></g><g class="ps00"><clipPath id="clp44"><path d="M306 315 L324 315 L324 336 L306 336 Z" /></clipPath><g clip-path="url(#clp44)"><g class="ps00"><text transform="matrix(1 0 0 1 311.899 330)"><tspan class="ps02 ps21" xml:space="preserve">, </tspan></text></g></g></g><g class="ps00"><clipPath id="clp45"><path d="M314 315 L340 315 L340 336 L314 336 Z" /></clipPath><g clip-path="url(#clp45)"><g class="ps00"><text transform="matrix(1 0 0 1 319.537 330)"><tspan class="ps02 ps21" xml:space="preserve">KS</tspan></text></g></g></g><g class="ps00"><clipPath id="clp46"><path d="M98.002 335 L559 335 L559 356 L98.002 356 Z" /></clipPath><g clip-path="url(#clp46)"><g class="ps00"><text transform="matrix(1 0 0 1 103 350)"><tspan class="ps02 ps21" xml:space="preserve">Analyzed requirements and designed, developed and implemented software applications</tspan></text></g></g></g><g class="ps00"><clipPath id="clp47"><path d="M98.002 350 L219 350 L219 371 L98.002 371 Z" /></clipPath><g clip-path="url(#clp47)"><g class="ps00"><text transform="matrix(1 0 0 1 103 365)"><tspan class="ps02 ps21" xml:space="preserve">for multiple websites.</tspan></text></g></g></g><g class="ps00"><path d="M85.801 344.23 L85.801 344.23 C87.012 344.23 87.998 345.21 87.998 346.42 C87.998 347.64 87.012 348.63 85.801 348.63 C84.585 348.63 83.599 347.64 83.599 346.42 C83.599 345.21 84.585 344.23 85.801 344.23 Z" class="ps05" /></g><g class="ps00"><clipPath id="clp48"><path d="M98.002 365 L516 365 L516 386 L98.002 386 Z" /></clipPath><g clip-path="url(#clp48)"><g class="ps00"><text transform="matrix(1 0 0 1 103 380)"><tspan class="ps02 ps21" xml:space="preserve">Reworked applications to meet changing market trends and individual customer</tspan></text></g></g></g><g class="ps00"><clipPath id="clp49"><path d="M98.002 380 L159 380 L159 401 L98.002 401 Z" /></clipPath><g clip-path="url(#clp49)"><g class="ps00"><text transform="matrix(1 0 0 1 103 395)"><tspan x="0,6.23" class="ps02 ps21" xml:space="preserve">demands.</tspan></text></g></g></g><g class="ps00"><path d="M85.801 374.22 L85.801 374.22 C87.012 374.22 87.998 375.21 87.998 376.43 C87.998 377.64 87.012 378.62 85.801 378.62 C84.585 378.62 83.599 377.64 83.599 376.43 C83.599 375.21 84.585 374.22 85.801 374.22 Z" class="ps05" /></g><g class="ps00"><clipPath id="clp50"><path d="M98.002 395 L425 395 L425 416 L98.002 416 Z" /></clipPath><g clip-path="url(#clp50)"><g class="ps00"><text transform="matrix(1 0 0 1 103 410)"><tspan class="ps02 ps21" xml:space="preserve">Reviewed code and debugged errors to improve performance.</tspan></text></g></g></g><g class="ps00"><path d="M85.801 404.23 L85.801 404.23 C87.012 404.23 87.998 405.21 87.998 406.42 C87.998 407.64 87.012 408.63 85.801 408.63 C84.585 408.63 83.599 407.64 83.599 406.42 C83.599 405.21 84.585 404.23 85.801 404.23 Z" class="ps05" /></g><g class="ps00"><clipPath id="clp51"><path d="M458 420 L512 420 L512 441 L458 441 Z" /></clipPath><g clip-path="url(#clp51)"><g class="ps00"><text transform="matrix(1 0 0 1 463.037 435)"><tspan class="ps02 ps23" xml:space="preserve">06/2007</tspan></text></g></g></g><g class="ps00"><clipPath id="clp52"><path d="M500 420 L523 420 L523 441 L500 441 Z" /></clipPath><g clip-path="url(#clp52)"><g class="ps00"><text transform="matrix(1 0 0 1 505.75 435)"><tspan xml:space="preserve" class="ps02 ps23"> - </tspan></text></g></g></g><g class="ps00"><clipPath id="clp53"><path d="M513 420 L567 420 L567 441 L513 441 Z" /></clipPath><g clip-path="url(#clp53)"><g class="ps00"><text transform="matrix(1 0 0 1 518.287 435)"><tspan class="ps02 ps23" xml:space="preserve">08/2009</tspan></text></g></g></g><g class="ps00"><clipPath id="clp54"><path d="M65.001 420 L148 420 L148 441 L65.001 441 Z" /></clipPath><g clip-path="url(#clp54)"><g class="ps00"><text transform="matrix(1 0 0 1 70 435)"><tspan class="ps02 ps24" xml:space="preserve">Office Intern</tspan></text></g></g></g><g class="ps00"><clipPath id="clp55"><path d="M136 420 L159 420 L159 441 L136 441 Z" /></clipPath><g clip-path="url(#clp55)"><g class="ps00"><text transform="matrix(1 0 0 1 141.762 435)"><tspan xml:space="preserve" class="ps02 ps21"> | </tspan></text></g></g></g><g class="ps00"><clipPath id="clp56"><path d="M149 420 L263 420 L263 441 L149 441 Z" /></clipPath><g clip-path="url(#clp56)"><g class="ps00"><text transform="matrix(1 0 0 1 154.3 435)"><tspan class="ps02 ps21" xml:space="preserve">Systems &amp; Software</tspan></text></g></g></g><g class="ps00"><clipPath id="clp57"><path d="M251 420 L274 420 L274 441 L251 441 Z" /></clipPath><g clip-path="url(#clp57)"><g class="ps00"><text transform="matrix(1 0 0 1 256.887 435)"><tspan xml:space="preserve" class="ps02 ps21"> - </tspan></text></g></g></g><g class="ps00"><clipPath id="clp58"><path d="M264 420 L319 420 L319 441 L264 441 Z" /></clipPath><g clip-path="url(#clp58)"><g class="ps00"><text transform="matrix(1 0 0 1 269.424 435)"><tspan class="ps02 ps21" xml:space="preserve">Teaberry</tspan></text></g></g></g><g class="ps00"><clipPath id="clp59"><path d="M307 420 L324 420 L324 441 L307 441 Z" /></clipPath><g clip-path="url(#clp59)"><g class="ps00"><text transform="matrix(1 0 0 1 312.174 435)"><tspan class="ps02 ps21" xml:space="preserve">, </tspan></text></g></g></g><g class="ps00"><clipPath id="clp60"><path d="M314 420 L340 420 L340 441 L314 441 Z" /></clipPath><g clip-path="url(#clp60)"><g class="ps00"><text transform="matrix(1 0 0 1 319.812 435)"><tspan class="ps02 ps21" xml:space="preserve">KS</tspan></text></g></g></g><g class="ps00"><clipPath id="clp61"><path d="M98.002 440 L545 440 L545 461 L98.002 461 Z" /></clipPath><g clip-path="url(#clp61)"><g class="ps00"><text transform="matrix(1 0 0 1 103 455)"><tspan class="ps02 ps21" xml:space="preserve">Maintained status reports to provide management with updated information for client</tspan></text></g></g></g><g class="ps00"><clipPath id="clp62"><path d="M98.002 455 L153 455 L153 476 L98.002 476 Z" /></clipPath><g clip-path="url(#clp62)"><g class="ps00"><text transform="matrix(1 0 0 1 103 470)"><tspan class="ps02 ps21" xml:space="preserve">projects.</tspan></text></g></g></g><g class="ps00"><path d="M85.801 449.22 L85.801 449.22 C87.012 449.22 87.998 450.21 87.998 451.43 C87.998 452.64 87.012 453.62 85.801 453.62 C84.585 453.62 83.599 452.64 83.599 451.43 C83.599 450.21 84.585 449.22 85.801 449.22 Z" class="ps05" /></g><g class="ps00"><clipPath id="clp63"><path d="M98.002 470 L558 470 L558 491 L98.002 491 Z" /></clipPath><g clip-path="url(#clp63)"><g class="ps00"><text transform="matrix(1 0 0 1 103 485)"><tspan class="ps02 ps21" xml:space="preserve">Supported various company departments by answering phones, faxing, copying packets</tspan></text></g></g></g><g class="ps00"><clipPath id="clp64"><path d="M98.002 485 L256 485 L256 506 L98.002 506 Z" /></clipPath><g clip-path="url(#clp64)"><g class="ps00"><text transform="matrix(1 0 0 1 103 500)"><tspan class="ps02 ps21" xml:space="preserve">and mailing correspondence.</tspan></text></g></g></g><g class="ps00"><path d="M85.801 479.23 L85.801 479.23 C87.012 479.23 87.998 480.21 87.998 481.42 C87.998 482.64 87.012 483.63 85.801 483.63 C84.585 483.63 83.599 482.64 83.599 481.42 C83.599 480.21 84.585 479.23 85.801 479.23 Z" class="ps05" /></g><g class="ps00"><clipPath id="clp65"><path d="M98.002 500 L529 500 L529 521 L98.002 521 Z" /></clipPath><g clip-path="url(#clp65)"><g class="ps00"><text transform="matrix(1 0 0 1 103 515)"><tspan class="ps02 ps21" xml:space="preserve">Maintained office calendar, including setting appointments and booking conference</tspan></text></g></g></g><g class="ps00"><clipPath id="clp66"><path d="M98.002 515 L144 515 L144 536 L98.002 536 Z" /></clipPath><g clip-path="url(#clp66)"><g class="ps00"><text transform="matrix(1 0 0 1 103 530)"><tspan class="ps02 ps21" xml:space="preserve">rooms.</tspan></text></g></g></g><g class="ps00"><path d="M85.801 509.22 L85.801 509.22 C87.012 509.22 87.998 510.21 87.998 511.43 C87.998 512.64 87.012 513.63 85.801 513.63 C84.585 513.63 83.599 512.64 83.599 511.43 C83.599 510.21 84.585 509.22 85.801 509.22 Z" class="ps05" /></g><g class="ps00"><clipPath id="clp67"><path d="M48.999 533 L50 533 L50 650 L48.999 650 Z" /></clipPath><g clip-path="url(#clp67)"><g class="ps00"><path d="M48.999 533 L50 533 L50 650 L48.999 650 Z" class="ps03" /></g></g></g><g class="ps00"><clipPath id="clp68"><path d="M65.001 555 L131 555 L131 578 L65.001 578 Z" /></clipPath><g clip-path="url(#clp68)"><g class="ps00"><text transform="matrix(1 0 0 1 70 572)"><tspan class="ps04 ps22" xml:space="preserve">SKILLS</tspan></text></g></g></g><g class="ps00"><clipPath id="clp69"><path d="M98.002 587 L215 587 L215 608 L98.002 608 Z" /></clipPath><g clip-path="url(#clp69)"><g class="ps00"><text transform="matrix(1 0 0 1 103 602)"><tspan class="ps02 ps21" xml:space="preserve">Software automation</tspan></text></g></g></g><g class="ps00"><path d="M85.801 596.22 L85.801 596.22 C87.012 596.22 87.998 597.21 87.998 598.43 C87.998 599.64 87.012 600.62 85.801 600.62 C84.585 600.62 83.599 599.64 83.599 598.43 C83.599 597.21 84.585 596.22 85.801 596.22 Z" class="ps05" /></g><g class="ps00"><clipPath id="clp70"><path d="M98.002 602 L241 602 L241 623 L98.002 623 Z" /></clipPath><g clip-path="url(#clp70)"><g class="ps00"><text transform="matrix(1 0 0 1 103 617)"><tspan class="ps02 ps21" xml:space="preserve">Conceptual understanding</tspan></text></g></g></g><g class="ps00"><path d="M85.801 611.23 L85.801 611.23 C87.012 611.23 87.998 612.21 87.998 613.42 C87.998 614.64 87.012 615.63 85.801 615.63 C84.585 615.63 83.599 614.64 83.599 613.42 C83.599 612.21 84.585 611.23 85.801 611.23 Z" class="ps05" /></g><g class="ps00"><clipPath id="clp71"><path d="M98.002 617 L204 617 L204 638 L98.002 638 Z" /></clipPath><g clip-path="url(#clp71)"><g class="ps00"><text transform="matrix(1 0 0 1 103 632)"><tspan class="ps02 ps21" xml:space="preserve">Usability principles</tspan></text></g></g></g><g class="ps00"><path d="M85.801 626.23 L85.801 626.23 C87.012 626.23 87.998 627.21 87.998 628.42 C87.998 629.64 87.012 630.63 85.801 630.63 C84.585 630.63 83.599 629.64 83.599 628.42 C83.599 627.21 84.585 626.23 85.801 626.23 Z" class="ps05" /></g><g class="ps00"><clipPath id="clp72"><path d="M98.002 632 L201 632 L201 653 L98.002 653 Z" /></clipPath><g clip-path="url(#clp72)"><g class="ps00"><text transform="matrix(1 0 0 1 103 647)"><tspan class="ps02 ps21" xml:space="preserve">Application design</tspan></text></g></g></g><g class="ps00"><path d="M85.801 641.22 L85.801 641.22 C87.012 641.22 87.998 642.21 87.998 643.42 C87.998 644.64 87.012 645.63 85.801 645.63 C84.585 645.63 83.599 644.64 83.599 643.42 C83.599 642.21 84.585 641.22 85.801 641.22 Z" class="ps05" /></g><g class="ps00"><clipPath id="clp73"><path d="M343 587 L468 587 L468 608 L343 608 Z" /></clipPath><g clip-path="url(#clp73)"><g class="ps00"><text transform="matrix(1 0 0 1 348.5 602)"><tspan class="ps02 ps21" xml:space="preserve">Engineering standards</tspan></text></g></g></g><g class="ps00"><path d="M331.3 596.22 L331.3 596.22 C332.51 596.22 333.5 597.21 333.5 598.43 C333.5 599.64 332.51 600.62 331.3 600.62 C330.09 600.62 329.1 599.64 329.1 598.43 C329.1 597.21 330.09 596.22 331.3 596.22 Z" class="ps05" /></g><g class="ps00"><clipPath id="clp74"><path d="M343 602 L483 602 L483 623 L343 623 Z" /></clipPath><g clip-path="url(#clp74)"><g class="ps00"><text transform="matrix(1 0 0 1 348.5 617)"><tspan class="ps02 ps21" xml:space="preserve">Program testing software</tspan></text></g></g></g><g class="ps00"><path d="M331.3 611.23 L331.3 611.23 C332.51 611.23 333.5 612.21 333.5 613.42 C333.5 614.64 332.51 615.63 331.3 615.63 C330.09 615.63 329.1 614.64 329.1 613.42 C329.1 612.21 330.09 611.23 331.3 611.23 Z" class="ps05" /></g><g class="ps00"><clipPath id="clp75"><path d="M343 617 L463 617 L463 638 L343 638 Z" /></clipPath><g clip-path="url(#clp75)"><g class="ps00"><text transform="matrix(1 0 0 1 348.5 632)"><tspan class="ps02 ps21" xml:space="preserve">Software applications</tspan></text></g></g></g><g class="ps00"><path d="M331.3 626.23 L331.3 626.23 C332.51 626.23 333.5 627.21 333.5 628.42 C333.5 629.64 332.51 630.63 331.3 630.63 C330.09 630.63 329.1 629.64 329.1 628.42 C329.1 627.21 330.09 626.23 331.3 626.23 Z" class="ps05" /></g><g class="ps00"><clipPath id="clp76"><path d="M343 632 L474 632 L474 653 L343 653 Z" /></clipPath><g clip-path="url(#clp76)"><g class="ps00"><text transform="matrix(1 0 0 1 348.5 647)"><tspan class="ps02 ps21" xml:space="preserve">Database programming</tspan></text></g></g></g><g class="ps00"><path d="M331.3 641.22 L331.3 641.22 C332.51 641.22 333.5 642.21 333.5 643.42 C333.5 644.64 332.51 645.63 331.3 645.63 C330.09 645.63 329.1 644.64 329.1 643.42 C329.1 642.21 330.09 641.22 331.3 641.22 Z" class="ps05" /></g><g class="ps00"><clipPath id="clp77"><path d="M48.999 650 L50 650 L50 732 L48.999 732 Z" /></clipPath><g clip-path="url(#clp77)"><g class="ps00"><path d="M48.999 650 L50 650 L50 732 L48.999 732 Z" class="ps03" /></g></g></g><g class="ps00"><clipPath id="clp78"><path d="M65.001 672 L166 672 L166 695 L65.001 695 Z" /></clipPath><g clip-path="url(#clp78)"><g class="ps00"><text transform="matrix(1 0 0 1 70 689)"><tspan class="ps04 ps22" xml:space="preserve">EDUCATION</tspan></text></g></g></g><g class="ps00"><clipPath id="clp79"><path d="M65.001 699 L176 699 L176 720 L65.001 720 Z" /></clipPath><g clip-path="url(#clp79)"><g class="ps00"><text transform="matrix(1 0 0 1 70 714)"><tspan class="ps02 ps21" xml:space="preserve">Kansas City College</tspan></text></g></g></g><g class="ps00"><clipPath id="clp80"><path d="M164 699 L187 699 L187 720 L164 720 Z" /></clipPath><g clip-path="url(#clp80)"><g class="ps00"><text transform="matrix(1 0 0 1 169.637 714)"><tspan xml:space="preserve" class="ps02 ps21"> - </tspan></text></g></g></g><g class="ps00"><clipPath id="clp81"><path d="M177 699 L247 699 L247 720 L177 720 Z" /></clipPath><g clip-path="url(#clp81)"><g class="ps00"><text transform="matrix(1 0 0 1 182.175 714)"><tspan class="ps02 ps21" xml:space="preserve">Kansas City</tspan></text></g></g></g><g class="ps00"><clipPath id="clp82"><path d="M235 699 L252 699 L252 720 L235 720 Z" /></clipPath><g clip-path="url(#clp82)"><g class="ps00"><text transform="matrix(1 0 0 1 240.175 714)"><tspan class="ps02 ps21" xml:space="preserve">, </tspan></text></g></g></g><g class="ps00"><clipPath id="clp83"><path d="M242 699 L268 699 L268 720 L242 720 Z" /></clipPath><g clip-path="url(#clp83)"><g class="ps00"><text transform="matrix(1 0 0 1 247.812 714)"><tspan class="ps02 ps21" xml:space="preserve">KS</tspan></text></g></g></g><g class="ps00"><clipPath id="clp84"><path d="M65.001 714 L185 714 L185 735 L65.001 735 Z" /></clipPath><g clip-path="url(#clp84)"><g class="ps00"><text transform="matrix(1 0 0 1 70 729)"><tspan class="ps02 ps24" xml:space="preserve">Bachelor of Science</tspan></text></g></g></g><g class="ps00"><clipPath id="clp85"><path d="M173 714 L192 714 L192 735 L173 735 Z" /></clipPath><g clip-path="url(#clp85)"><g class="ps00"><text transform="matrix(1 0 0 1 178.962 729)"><tspan xml:space="preserve" x="0,4.54" class="ps02 ps21">: </tspan></text></g></g></g><g class="ps00"><clipPath id="clp86"><path d="M182 714 L292 714 L292 735 L182 735 Z" /></clipPath><g clip-path="url(#clp86)"><g class="ps00"><text transform="matrix(1 0 0 1 187.5 729)"><tspan class="ps02 ps21" xml:space="preserve">Computer Software</tspan></text></g></g></g></g></g><g><clipPath id="clp87"><path d="M47.001 79.001 L52.003 79.001 L52.003 112 L47.001 112 Z" /></clipPath><g clip-path="url(#clp87)"><g class="ps00"><path d="M47.001 79.001 L52.003 79.001 L52.003 112 L47.001 112 Z" class="ps01" /></g></g></g><g><clipPath id="clp88"><path d="M44.998 107 L54.997 107 L54.997 117 L44.998 117 Z" /></clipPath><g clip-path="url(#clp88)"><g class="ps00"><clipPath id="clp89"><path d="M50 107 L50 107 C52.758 107 55.002 109.24 55.002 112 C55.002 114.76 52.758 117 50 117 C47.242 117 44.998 114.76 44.998 112 C44.998 109.24 47.242 107 50 107 Z" /></clipPath><g clip-path="url(#clp89)"><g class="ps00"><path d="M44.998 107 L54.997 107 L54.997 117 L44.998 117 Z" class="ps01" /></g></g></g></g></g><g><clipPath id="clp90"><path d="M0 0 L616.11 0 L616.11 732.89 L0 732.89 Z" /></clipPath><g clip-path="url(#clp90)"><g class="ps00"><path d="M50 107 L50 107 C52.758 107 55.002 109.24 55.002 112 C55.002 114.76 52.758 117 50 117 C47.242 117 44.998 114.76 44.998 112 C44.998 109.24 47.242 107 50 107 ZM50 108 L50 108 C47.793 108 45.999 109.79 45.999 112 C45.999 114.21 47.793 116 50 116 C52.207 116 54.001 114.21 54.001 112 C54.001 109.79 52.207 108 50 108 Z" class="ps03" /></g></g></g><g><clipPath id="clp91"><path d="M44.998 204 L54.997 204 L54.997 214 L44.998 214 Z" /></clipPath><g clip-path="url(#clp91)"><g class="ps00"><clipPath id="clp92"><path d="M50 204 L50 204 C52.758 204 55.002 206.24 55.002 209 C55.002 211.76 52.758 214 50 214 C47.242 214 44.998 211.76 44.998 209 C44.998 206.24 47.242 204 50 204 Z" /></clipPath><g clip-path="url(#clp92)"><g class="ps00"><path d="M44.998 204 L54.997 204 L54.997 214 L44.998 214 Z" class="ps01" /></g></g></g></g></g><g><clipPath id="clp93"><path d="M0 0 L616.11 0 L616.11 732.89 L0 732.89 Z" /></clipPath><g clip-path="url(#clp93)"><g class="ps00"><path d="M50 204 L50 204 C52.758 204 55.002 206.24 55.002 209 C55.002 211.76 52.758 214 50 214 C47.242 214 44.998 211.76 44.998 209 C44.998 206.24 47.242 204 50 204 ZM50 205 L50 205 C47.793 205 45.999 206.79 45.999 209 C45.999 211.21 47.793 213 50 213 C52.207 213 54.001 211.21 54.001 209 C54.001 206.79 52.207 205 50 205 Z" class="ps03" /></g></g></g><g><clipPath id="clp94"><path d="M44.998 561 L54.997 561 L54.997 571 L44.998 571 Z" /></clipPath><g clip-path="url(#clp94)"><g class="ps00"><clipPath id="clp95"><path d="M50 561 L50 561 C52.758 561 55.002 563.24 55.002 566 C55.002 568.76 52.758 571 50 571 C47.242 571 44.998 568.76 44.998 566 C44.998 563.24 47.242 561 50 561 Z" /></clipPath><g clip-path="url(#clp95)"><g class="ps00"><path d="M44.998 561 L54.997 561 L54.997 571 L44.998 571 Z" class="ps01" /></g></g></g></g></g><g><clipPath id="clp96"><path d="M0 0 L616.11 0 L616.11 732.89 L0 732.89 Z" /></clipPath><g clip-path="url(#clp96)"><g class="ps00"><path d="M50 561 L50 561 C52.758 561 55.002 563.24 55.002 566 C55.002 568.76 52.758 571 50 571 C47.242 571 44.998 568.76 44.998 566 C44.998 563.24 47.242 561 50 561 ZM50 562 L50 562 C47.793 562 45.999 563.79 45.999 566 C45.999 568.21 47.793 570 50 570 C52.207 570 54.001 568.21 54.001 566 C54.001 563.79 52.207 562 50 562 Z" class="ps03" /></g></g></g><g><clipPath id="clp97"><path d="M44.998 678 L54.997 678 L54.997 688 L44.998 688 Z" /></clipPath><g clip-path="url(#clp97)"><g class="ps00"><clipPath id="clp98"><path d="M50 678 L50 678 C52.758 678 55.002 680.24 55.002 683 C55.002 685.76 52.758 688 50 688 C47.242 688 44.998 685.76 44.998 683 C44.998 680.24 47.242 678 50 678 Z" /></clipPath><g clip-path="url(#clp98)"><g class="ps00"><path d="M44.998 678 L54.997 678 L54.997 688 L44.998 688 Z" class="ps01" /></g></g></g></g></g><g><clipPath id="clp99"><path d="M0 0 L616.11 0 L616.11 732.89 L0 732.89 Z" /></clipPath><g clip-path="url(#clp99)"><g class="ps00"><path d="M50 678 L50 678 C52.758 678 55.002 680.24 55.002 683 C55.002 685.76 52.758 688 50 688 C47.242 688 44.998 685.76 44.998 683 C44.998 680.24 47.242 678 50 678 ZM50 679 L50 679 C47.793 679 45.999 680.79 45.999 683 C45.999 685.21 47.793 687 50 687 C52.207 687 54.001 685.21 54.001 683 C54.001 680.79 52.207 679 50 679 Z" class="ps03" /></g></g></g></g></g></g></g></g></g></svg>