<?xml version="1.0" encoding="utf-8" standalone="yes"?><svg xmlns="http://www.w3.org/2000/svg" xmlns:xlink="http://www.w3.org/1999/xlink" version="1.1" width="100%" height="100%" viewBox="0 0 816 1056"><!--Generated by Aspose.Words for .NET 18.5--><defs><clipPath id="clip1"><path d="M-1,-1 L549,-1 L549,18 L-1,18 Z" clip-rule="evenodd"></path></clipPath><clipPath id="clip10"><path d="M-1,-1 L364,-1 L364,90 L-1,90 Z" clip-rule="evenodd"></path></clipPath><clipPath id="clip11"><path d="M-1,-1 L186,-1 L186,63 L-1,63 Z" clip-rule="evenodd"></path></clipPath><clipPath id="clip12"><path d="M-1,-1 L364,-1 L364,63 L-1,63 Z" clip-rule="evenodd"></path></clipPath><clipPath id="clip13"><path d="M-1,-1 L549,-1 L549,18 L-1,18 Z" clip-rule="evenodd"></path></clipPath><clipPath id="clip2"><path d="M-1,-1 L549,-1 L549,18 L-1,18 Z" clip-rule="evenodd"></path></clipPath><clipPath id="clip3"><path d="M-1,-1 L549,-1 L549,18 L-1,18 Z" clip-rule="evenodd"></path></clipPath><clipPath id="clip4"><path d="M-1,-1 L269.899993896,-1 L269.899993896,74.5 L-1,74.5 Z" clip-rule="evenodd"></path></clipPath><clipPath id="clip5"><path d="M-0.5,-1 L269.899993896,-1 L269.899993896,74.5 L-0.5,74.5 Z" clip-rule="evenodd"></path></clipPath><clipPath id="clip6"><path d="M-1,-1 L549,-1 L549,18 L-1,18 Z" clip-rule="evenodd"></path></clipPath><clipPath id="clip7"><path d="M-1,-1 L186,-1 L186,73 L-1,73 Z" clip-rule="evenodd"></path></clipPath><clipPath id="clip8"><path d="M-1,-1 L364,-1 L364,73 L-1,73 Z" clip-rule="evenodd"></path></clipPath><clipPath id="clip9"><path d="M-1,-1 L186,-1 L186,90 L-1,90 Z" clip-rule="evenodd"></path></clipPath><style type="text/css">svg{background:white}@font-face{font-family:'Century Gothic';font-weight:normal;font-style:normal;src:local('Century Gothic'),url('https://lccontentprod.blob.core.windows.net/fonts/CenturyGothic.woff2') format('woff2'),url('https://content.livecareer.com/zty/fonts/CenturyGothic.ttf') format('truetype')}@font-face{font-family:'Century Gothic';font-weight:bold;font-style:normal;src:local('Century Gothic Bold'),url('https://lccontentprod.blob.core.windows.net/fonts/CenturyGothicBold.woff2') format('woff2'),url('https://content.livecareer.com/zty/fonts/CenturyGothicBold.ttf') format('truetype')}@font-face{font-family:'Century Gothic';font-weight:bold;font-style:italic;src:local('Century Gothic Bold Italic'),url('https://lccontentprod.blob.core.windows.net/fonts/CenturyGothicBoldItalic.woff2') format('woff2'),url('https://content.livecareer.com/zty/fonts/CenturyGothicBoldItalic.ttf') format('truetype')}@font-face{font-family:'Century Gothic';font-weight:normal;font-style:italic;src:local('Century Gothic Italic'),url('https://lccontentprod.blob.core.windows.net/fonts/CenturyGothicItalic.woff2') format('woff2'),url('https://content.livecareer.com/zty/fonts/CenturyGothicItalic.ttf') format('truetype')}</style></defs><g transform="scale(1.33333)"><g><path d="M0,0 L600,0 L600,450 L0,450 Z" fill="#ffffff" fill-rule="evenodd"></path><g transform="matrix(1,0,0,1,600,0)"><path d="M0,0 L600,0 L600,450 L0,450 Z" fill="#ffffff" fill-rule="evenodd"></path></g><g transform="matrix(1,0,0,1,0,450)"><path d="M0,0 L600,0 L600,450 L0,450 Z" fill="#ffffff" fill-rule="evenodd"></path></g><g transform="matrix(1,0,0,1,600,450)"><path d="M0,0 L600,0 L600,450 L0,450 Z" fill="#ffffff" fill-rule="evenodd"></path></g><g transform="matrix(1,0,0,1,32,32)"><text><tspan x="123.694000244" y="39.229000092" font-family="Century Gothic" font-weight="normal" font-style="normal" font-size="39" fill="#4a4a4a">CYNTHIA MILLER</tspan></text><g transform="matrix(1,0,0,1,0,47.817001343)"><text><tspan x="119.222999573" y="11.798000336" font-family="Century Gothic" font-weight="normal" font-style="normal" font-size="10" fill="#4a4a4a">example@example.com | (555) 555-5555 | Pittsburgh, PA 15207</tspan></text></g><g transform="matrix(1,0,0,1,0,76.817001343)"><path d="M0,0 L548,0 L548,17 L0,17 Z" fill="#bca97e" fill-rule="evenodd"></path><g transform="matrix(1,0,0,1,0,0)" clip-path="url(#clip1)"><g transform="matrix(1,0,0,1,10,0)"><text><tspan x="0" y="13.605999947" font-family="Century Gothic" font-weight="bold" font-style="normal" font-size="13" fill="#4a4a4a">PROFESSIONAL SUMMARY</tspan></text></g></g></g><g transform="matrix(1,0,0,1,10,93.817001343)"><text><tspan x="0" y="13.798000336" font-family="Century Gothic" font-weight="normal" font-style="normal" font-size="10" fill="#4a4a4a">Efficient and organized supply chain manager with 4+ years of experience excels at finding creative ways to </tspan><tspan x="0" y="27.798000336" font-family="Century Gothic" font-weight="normal" font-style="normal" font-size="10" fill="#4a4a4a">reduce costs and improve efficiency. My skills in sourcing, procuring and implementing materials into </tspan><tspan x="0" y="41.798000336" font-family="Century Gothic" font-weight="normal" font-style="normal" font-size="10" fill="#4a4a4a">production have resulted in major financial benchmarks exceeding financial targets by 18 percent for my </tspan><tspan x="0" y="55.798000336" font-family="Century Gothic" font-weight="normal" font-style="normal" font-size="10" fill="#4a4a4a">past employers.</tspan></text></g><g transform="matrix(1,0,0,1,0,166.817001343)"><path d="M0,0 L548,0 L548,17 L0,17 Z" fill="#bca97e" fill-rule="evenodd"></path><g transform="matrix(1,0,0,1,0,0)" clip-path="url(#clip2)"><g transform="matrix(1,0,0,1,10,0)"><text><tspan x="0" y="13.605999947" font-family="Century Gothic" font-weight="bold" font-style="normal" font-size="13" fill="#4a4a4a">SUMMARY OF QUALIFICATIONS</tspan></text></g></g></g><g transform="matrix(1,0,0,1,10.399999619,183.817001343)"><text><tspan x="-0.5" y="13.048000336" font-family="Times New Roman" font-weight="normal" font-style="normal" font-size="7.5" fill="#4a4a4a">●</tspan><tspan x="11.600000381" y="13.798000336" font-family="Century Gothic" font-weight="normal" font-style="normal" font-size="10" fill="#4a4a4a">Familiar with e-business and e-procurement systems</tspan></text></g><g transform="matrix(1,0,0,1,10.399999619,199.817001343)"><text><tspan x="-0.5" y="11.048000336" font-family="Times New Roman" font-weight="normal" font-style="normal" font-size="7.5" fill="#4a4a4a">●</tspan><tspan x="11.600000381" y="11.798000336" font-family="Century Gothic" font-weight="normal" font-style="normal" font-size="10" fill="#4a4a4a">Knowledgeable about cross-cultural and global sourcing issues</tspan></text></g><g transform="matrix(1,0,0,1,10.399999619,213.817001343)"><text><tspan x="-0.5" y="11.048000336" font-family="Times New Roman" font-weight="normal" font-style="normal" font-size="7.5" fill="#4a4a4a">●</tspan><tspan x="11.600000381" y="11.798000336" font-family="Century Gothic" font-weight="normal" font-style="normal" font-size="10" fill="#4a4a4a">Grounded with high sense of business ethics</tspan></text></g><g transform="matrix(1,0,0,1,0,242.817001343)"><path d="M0,0 L548,0 L548,17 L0,17 Z" fill="#bca97e" fill-rule="evenodd"></path><g transform="matrix(1,0,0,1,0,0)" clip-path="url(#clip3)"><g transform="matrix(1,0,0,1,10,0)"><text><tspan x="0" y="13.605999947" font-family="Century Gothic" font-weight="bold" font-style="normal" font-size="13" fill="#4a4a4a">SKILLS</tspan></text></g></g></g><g transform="matrix(1,0,0,1,10,259.816986084)"><g transform="matrix(1,0,0,1,0,0)" clip-path="url(#clip4)"><g transform="matrix(1,0,0,1,0.649999976,2.25)"><text><tspan x="-0.5" y="11.048000336" font-family="Times New Roman" font-weight="normal" font-style="normal" font-size="7.5" fill="#4a4a4a">●</tspan><tspan x="11.600000381" y="11.798000336" font-family="Century Gothic" font-weight="normal" font-style="normal" font-size="10" fill="#4a4a4a">International purchasing</tspan></text></g><g transform="matrix(1,0,0,1,0.649999976,16.25)"><text><tspan x="-0.5" y="11.048000336" font-family="Times New Roman" font-weight="normal" font-style="normal" font-size="7.5" fill="#4a4a4a">●</tspan><tspan x="11.600000381" y="11.798000336" font-family="Century Gothic" font-weight="normal" font-style="normal" font-size="10" fill="#4a4a4a">Negotiating</tspan></text></g><g transform="matrix(1,0,0,1,0.649999976,30.25)"><text><tspan x="-0.5" y="11.048000336" font-family="Times New Roman" font-weight="normal" font-style="normal" font-size="7.5" fill="#4a4a4a">●</tspan><tspan x="11.600000381" y="11.798000336" font-family="Century Gothic" font-weight="normal" font-style="normal" font-size="10" fill="#4a4a4a">Supply chain distribution</tspan></text></g><g transform="matrix(1,0,0,1,0.649999976,44.25)"><text><tspan x="-0.5" y="11.048000336" font-family="Times New Roman" font-weight="normal" font-style="normal" font-size="7.5" fill="#4a4a4a">●</tspan><tspan x="11.600000381" y="11.798000336" font-family="Century Gothic" font-weight="normal" font-style="normal" font-size="10" fill="#4a4a4a">Multi-plant experience</tspan></text></g></g><g transform="matrix(1,0,0,1,268.899993896,0)" clip-path="url(#clip5)"><g transform="matrix(1,0,0,1,0.899999976,2.25)"><text><tspan x="-0.5" y="11.048000336" font-family="Times New Roman" font-weight="normal" font-style="normal" font-size="7.5" fill="#4a4a4a">●</tspan><tspan x="11.600000381" y="11.798000336" font-family="Century Gothic" font-weight="normal" font-style="normal" font-size="10" fill="#4a4a4a">Problem-solving</tspan></text></g><g transform="matrix(1,0,0,1,0.899999976,16.25)"><text><tspan x="-0.5" y="11.048000336" font-family="Times New Roman" font-weight="normal" font-style="normal" font-size="7.5" fill="#4a4a4a">●</tspan><tspan x="11.600000381" y="11.798000336" font-family="Century Gothic" font-weight="normal" font-style="normal" font-size="10" fill="#4a4a4a">Excellent communication skills</tspan></text></g><g transform="matrix(1,0,0,1,0.899999976,30.25)"><text><tspan x="-0.5" y="11.048000336" font-family="Times New Roman" font-weight="normal" font-style="normal" font-size="7.5" fill="#4a4a4a">●</tspan><tspan x="11.600000381" y="11.798000336" font-family="Century Gothic" font-weight="normal" font-style="normal" font-size="10" fill="#4a4a4a">Team management</tspan></text></g><g transform="matrix(1,0,0,1,0.899999976,44.25)"><text><tspan x="-0.5" y="11.048000336" font-family="Times New Roman" font-weight="normal" font-style="normal" font-size="7.5" fill="#4a4a4a">●</tspan><tspan x="11.600000381" y="11.798000336" font-family="Century Gothic" font-weight="normal" font-style="normal" font-size="10" fill="#4a4a4a">Sourcing</tspan></text></g></g><path d="M268.899993896,0 L268.899993896,73.5 " stroke-width="1" stroke-miterlimit="10" stroke="#fefdfd" fill="none" fill-rule="evenodd"></path></g><g transform="matrix(1,0,0,1,0,333.316986084)"><path d="M0,0 L548,0 L548,17 L0,17 Z" fill="#bca97e" fill-rule="evenodd"></path><g transform="matrix(1,0,0,1,0,0)" clip-path="url(#clip6)"><g transform="matrix(1,0,0,1,10,0)"><text><tspan x="0" y="13.605999947" font-family="Century Gothic" font-weight="bold" font-style="normal" font-size="13" fill="#4a4a4a">WORK HISTORY</tspan></text></g></g></g><g transform="matrix(1,0,0,1,0,350.316986084)"><g transform="matrix(1,0,0,1,0,0)" clip-path="url(#clip7)"><g transform="matrix(1,0,0,1,10,2)"><text><tspan x="0" y="11.798000336" font-family="Century Gothic" font-weight="normal" font-style="normal" font-size="10" fill="#4a4a4a">Nov 2016 - Current</tspan></text></g><g transform="matrix(1,0,0,1,10,16)"><text><tspan x="0" y="11.798000336" font-family="Century Gothic" font-weight="bold" font-style="normal" font-size="10" fill="#4a4a4a">Supply Chain Manager</tspan></text></g><g transform="matrix(1,0,0,1,10,30)"><text><tspan x="0" y="11.798000336" font-family="Century Gothic" font-weight="normal" font-style="normal" font-size="10" fill="#4a4a4a">Airtight Information Systems - </tspan><tspan x="0" y="25.798000336" font-family="Century Gothic" font-weight="normal" font-style="normal" font-size="10" fill="#4a4a4a">Pittsburgh, PA</tspan></text></g></g><g transform="matrix(1,0,0,1,185,0)" clip-path="url(#clip8)"><g transform="matrix(1,0,0,1,5.400000095,2)"><text><tspan x="-0.5" y="11.048000336" font-family="Times New Roman" font-weight="normal" font-style="normal" font-size="7.5" fill="#4a4a4a">●</tspan><tspan x="14.600000381" y="11.798000336" font-family="Century Gothic" font-weight="normal" font-style="normal" font-size="10" fill="#4a4a4a">Forecast and estimate supply chain prices for 37 different products</tspan></text></g><g transform="matrix(1,0,0,1,5.400000095,16)"><text><tspan x="-0.5" y="11.048000336" font-family="Times New Roman" font-weight="normal" font-style="normal" font-size="7.5" fill="#4a4a4a">●</tspan><tspan x="14.600000381" y="11.798000336" font-family="Century Gothic" font-weight="normal" font-style="normal" font-size="10" fill="#4a4a4a">Increased forecast accuracy by 12 percent</tspan></text></g><g transform="matrix(1,0,0,1,5.400000095,30)"><text><tspan x="-0.5" y="11.048000336" font-family="Times New Roman" font-weight="normal" font-style="normal" font-size="7.5" fill="#4a4a4a">●</tspan><tspan x="14.600000381" y="11.798000336" font-family="Century Gothic" font-weight="normal" font-style="normal" font-size="10" fill="#4a4a4a">Create and implement system of S&amp;OP</tspan></text></g><g transform="matrix(1,0,0,1,5.400000095,44)"><text><tspan x="-0.5" y="11.048000336" font-family="Times New Roman" font-weight="normal" font-style="normal" font-size="7.5" fill="#4a4a4a">●</tspan><tspan x="14.600000381" y="11.798000336" font-family="Century Gothic" font-weight="normal" font-style="normal" font-size="10" fill="#4a4a4a">Found new source for circuit boards that led to a 17 percent reduction </tspan><tspan x="14.600000381" y="25.798000336" font-family="Century Gothic" font-weight="normal" font-style="normal" font-size="10" fill="#4a4a4a">in production costs</tspan></text></g></g></g><g transform="matrix(1,0,0,1,0,422.316986084)"><g transform="matrix(1,0,0,1,0,0)" clip-path="url(#clip9)"><g transform="matrix(1,0,0,1,10,5)"><text><tspan x="0" y="11.798000336" font-family="Century Gothic" font-weight="normal" font-style="normal" font-size="10" fill="#4a4a4a">Sep 2014 - Oct 2016</tspan></text></g><g transform="matrix(1,0,0,1,10,19)"><text><tspan x="0" y="11.798000336" font-family="Century Gothic" font-weight="bold" font-style="normal" font-size="10" fill="#4a4a4a">Logistics Manager</tspan></text></g><g transform="matrix(1,0,0,1,10,33)"><text><tspan x="0" y="11.798000336" font-family="Century Gothic" font-weight="normal" font-style="normal" font-size="10" fill="#4a4a4a">Electric Genius Servers - Pittsburgh, </tspan><tspan x="0" y="25.798000336" font-family="Century Gothic" font-weight="normal" font-style="normal" font-size="10" fill="#4a4a4a">PA</tspan></text></g></g><g transform="matrix(1,0,0,1,185,0)" clip-path="url(#clip10)"><g transform="matrix(1,0,0,1,5.400000095,5)"><text><tspan x="-0.5" y="11.048000336" font-family="Times New Roman" font-weight="normal" font-style="normal" font-size="7.5" fill="#4a4a4a">●</tspan><tspan x="14.600000381" y="11.798000336" font-family="Century Gothic" font-weight="normal" font-style="normal" font-size="10" fill="#4a4a4a">Negotiated with key suppliers for better deals on parts and </tspan><tspan x="14.600000381" y="25.798000336" font-family="Century Gothic" font-weight="normal" font-style="normal" font-size="10" fill="#4a4a4a">components resulting in 4% increase in profit</tspan></text></g><g transform="matrix(1,0,0,1,5.400000095,33)"><text><tspan x="-0.5" y="11.048000336" font-family="Times New Roman" font-weight="normal" font-style="normal" font-size="7.5" fill="#4a4a4a">●</tspan><tspan x="14.600000381" y="11.798000336" font-family="Century Gothic" font-weight="normal" font-style="normal" font-size="10" fill="#4a4a4a">Optimized business processes to a 13 percent increase in production </tspan><tspan x="14.600000381" y="25.798000336" font-family="Century Gothic" font-weight="normal" font-style="normal" font-size="10" fill="#4a4a4a">efficiency</tspan></text></g><g transform="matrix(1,0,0,1,5.400000095,61)"><text><tspan x="-0.5" y="11.048000336" font-family="Times New Roman" font-weight="normal" font-style="normal" font-size="7.5" fill="#4a4a4a">●</tspan><tspan x="14.600000381" y="11.798000336" font-family="Century Gothic" font-weight="normal" font-style="normal" font-size="10" fill="#4a4a4a">Managed all purchases and vendor payments</tspan></text></g><g transform="matrix(1,0,0,1,5.400000095,75)"><text><tspan x="-0.5" y="11.048000336" font-family="Times New Roman" font-weight="normal" font-style="normal" font-size="7.5" fill="#4a4a4a">●</tspan><tspan x="14.600000381" y="11.798000336" font-family="Century Gothic" font-weight="normal" font-style="normal" font-size="10" fill="#4a4a4a">Ensured all KPI's were met</tspan></text></g></g></g><g transform="matrix(1,0,0,1,0,511.316986084)"><g transform="matrix(1,0,0,1,0,0)" clip-path="url(#clip11)"><g transform="matrix(1,0,0,1,10,5)"><text><tspan x="0" y="11.798000336" font-family="Century Gothic" font-weight="normal" font-style="normal" font-size="10" fill="#4a4a4a">Jun 2012 - Aug 2014</tspan></text></g><g transform="matrix(1,0,0,1,10,19)"><text><tspan x="0" y="11.798000336" font-family="Century Gothic" font-weight="bold" font-style="normal" font-size="10" fill="#4a4a4a">Logistics Clerk</tspan></text></g><g transform="matrix(1,0,0,1,10,33)"><text><tspan x="0" y="11.798000336" font-family="Century Gothic" font-weight="normal" font-style="normal" font-size="10" fill="#4a4a4a">Brainiac Systems - Pittsburgh, PA</tspan></text></g></g><g transform="matrix(1,0,0,1,185,0)" clip-path="url(#clip12)"><g transform="matrix(1,0,0,1,5.400000095,5)"><text><tspan x="-0.5" y="11.048000336" font-family="Times New Roman" font-weight="normal" font-style="normal" font-size="7.5" fill="#4a4a4a">●</tspan><tspan x="14.600000381" y="11.798000336" font-family="Century Gothic" font-weight="normal" font-style="normal" font-size="10" fill="#4a4a4a">Obtained over $15,000 donations of recoverable hardware to refurbish</tspan></text></g><g transform="matrix(1,0,0,1,5.400000095,19)"><text><tspan x="-0.5" y="11.048000336" font-family="Times New Roman" font-weight="normal" font-style="normal" font-size="7.5" fill="#4a4a4a">●</tspan><tspan x="14.600000381" y="11.798000336" font-family="Century Gothic" font-weight="normal" font-style="normal" font-size="10" fill="#4a4a4a">Worked as a liaison for receiving and assessed delivery</tspan></text></g><g transform="matrix(1,0,0,1,5.400000095,33)"><text><tspan x="-0.5" y="11.048000336" font-family="Times New Roman" font-weight="normal" font-style="normal" font-size="7.5" fill="#4a4a4a">●</tspan><tspan x="14.600000381" y="11.798000336" font-family="Century Gothic" font-weight="normal" font-style="normal" font-size="10" fill="#4a4a4a">Managed the daily schedule for shipping fulfillment</tspan></text></g></g></g><g transform="matrix(1,0,0,1,0,573.317016602)"><path d="M0,0 L548,0 L548,17 L0,17 Z" fill="#bca97e" fill-rule="evenodd"></path><g transform="matrix(1,0,0,1,0,0)" clip-path="url(#clip13)"><g transform="matrix(1,0,0,1,10,0)"><text><tspan x="0" y="13.605999947" font-family="Century Gothic" font-weight="bold" font-style="normal" font-size="13" fill="#4a4a4a">EDUCATION</tspan></text></g></g></g><g transform="matrix(1,0,0,1,10,590.317016602)"><text><tspan x="0" y="13.798000336" font-family="Century Gothic" font-weight="normal" font-style="normal" font-size="10" fill="#4a4a4a">May 2012 </tspan></text></g><g transform="matrix(1,0,0,1,10,606.317016602)"><text><tspan x="0" y="11.798000336" font-family="Century Gothic" font-weight="bold" font-style="normal" font-size="10" fill="#4a4a4a">Bachelor of Science</tspan><tspan x="97.202003479" y="11.798000336" font-family="Century Gothic" font-weight="normal" font-style="normal" font-size="10" fill="#4a4a4a">: Supply Chain Management</tspan></text></g><g transform="matrix(1,0,0,1,10,620.317016602)"><text><tspan x="0" y="11.798000336" font-family="Century Gothic" font-weight="normal" font-style="normal" font-size="10" fill="#4a4a4a">Alvernia University | Reading, PA</tspan></text></g><g transform="matrix(1,0,0,1,10,634.317016602)"><text><tspan x="0" y="12.798000336" font-family="Century Gothic" font-weight="normal" font-style="normal" font-size="10" fill="#4a4a4a"> </tspan></text></g></g></g></g></svg>